<mxfile host="app.diagrams.net" modified="2022-02-28T08:28:24.694Z" agent="5.0 (Windows)" etag="oxMp7CNHGZBd6IFE6iVs" version="16.6.2" type="github">
  <diagram id="C5RBs43oDa-KdzZeNtuy" name="Page-1">
    <mxGraphModel dx="1422" dy="752" grid="1" gridSize="10" guides="1" tooltips="1" connect="1" arrows="1" fold="1" page="1" pageScale="1" pageWidth="827" pageHeight="1169" math="0" shadow="0">
      <root>
        <mxCell id="WIyWlLk6GJQsqaUBKTNV-0" />
        <mxCell id="WIyWlLk6GJQsqaUBKTNV-1" parent="WIyWlLk6GJQsqaUBKTNV-0" />
        <mxCell id="mz3z-fcJ6gBDwEwf40fS-4" value="" style="edgeStyle=orthogonalEdgeStyle;rounded=0;orthogonalLoop=1;jettySize=auto;html=1;" edge="1" parent="WIyWlLk6GJQsqaUBKTNV-1" source="WIyWlLk6GJQsqaUBKTNV-3" target="mz3z-fcJ6gBDwEwf40fS-3">
          <mxGeometry relative="1" as="geometry" />
        </mxCell>
        <mxCell id="WIyWlLk6GJQsqaUBKTNV-3" value="Administrator starts the Script " style="rounded=1;whiteSpace=wrap;html=1;fontSize=12;glass=0;strokeWidth=1;shadow=0;" parent="WIyWlLk6GJQsqaUBKTNV-1" vertex="1">
          <mxGeometry x="356" y="70" width="120" height="40" as="geometry" />
        </mxCell>
        <mxCell id="mz3z-fcJ6gBDwEwf40fS-2" value="" style="edgeStyle=orthogonalEdgeStyle;rounded=0;orthogonalLoop=1;jettySize=auto;html=1;entryX=0.5;entryY=0;entryDx=0;entryDy=0;" edge="1" parent="WIyWlLk6GJQsqaUBKTNV-1" source="mz3z-fcJ6gBDwEwf40fS-0" target="WIyWlLk6GJQsqaUBKTNV-3">
          <mxGeometry relative="1" as="geometry">
            <mxPoint x="446" y="190" as="targetPoint" />
          </mxGeometry>
        </mxCell>
        <mxCell id="mz3z-fcJ6gBDwEwf40fS-0" value="" style="ellipse;whiteSpace=wrap;html=1;aspect=fixed;fillColor=#030303;" vertex="1" parent="WIyWlLk6GJQsqaUBKTNV-1">
          <mxGeometry x="290" y="30" width="40" height="40" as="geometry" />
        </mxCell>
        <mxCell id="mz3z-fcJ6gBDwEwf40fS-6" value="" style="edgeStyle=orthogonalEdgeStyle;rounded=0;orthogonalLoop=1;jettySize=auto;html=1;" edge="1" parent="WIyWlLk6GJQsqaUBKTNV-1" source="mz3z-fcJ6gBDwEwf40fS-3" target="mz3z-fcJ6gBDwEwf40fS-5">
          <mxGeometry relative="1" as="geometry" />
        </mxCell>
        <mxCell id="mz3z-fcJ6gBDwEwf40fS-3" value="Enter parameters to monitor" style="whiteSpace=wrap;html=1;rounded=1;glass=0;strokeWidth=1;shadow=0;" vertex="1" parent="WIyWlLk6GJQsqaUBKTNV-1">
          <mxGeometry x="341" y="150" width="150" height="40" as="geometry" />
        </mxCell>
        <mxCell id="mz3z-fcJ6gBDwEwf40fS-5" value="Network Monitoring Starts" style="whiteSpace=wrap;html=1;rounded=1;glass=0;strokeWidth=1;shadow=0;" vertex="1" parent="WIyWlLk6GJQsqaUBKTNV-1">
          <mxGeometry x="341" y="220" width="150" height="40" as="geometry" />
        </mxCell>
        <mxCell id="mz3z-fcJ6gBDwEwf40fS-7" value="" style="rhombus;whiteSpace=wrap;html=1;fillColor=#FFFFFF;" vertex="1" parent="WIyWlLk6GJQsqaUBKTNV-1">
          <mxGeometry x="386" y="360" width="60" height="50" as="geometry" />
        </mxCell>
        <mxCell id="mz3z-fcJ6gBDwEwf40fS-8" value="" style="endArrow=classic;html=1;rounded=0;exitX=0.5;exitY=1;exitDx=0;exitDy=0;entryX=0.5;entryY=0;entryDx=0;entryDy=0;" edge="1" parent="WIyWlLk6GJQsqaUBKTNV-1" source="mz3z-fcJ6gBDwEwf40fS-5" target="mz3z-fcJ6gBDwEwf40fS-15">
          <mxGeometry width="50" height="50" relative="1" as="geometry">
            <mxPoint x="360" y="410" as="sourcePoint" />
            <mxPoint x="416" y="300" as="targetPoint" />
          </mxGeometry>
        </mxCell>
        <mxCell id="mz3z-fcJ6gBDwEwf40fS-9" value="No threat" style="rounded=1;whiteSpace=wrap;html=1;fillColor=#FFFFFF;" vertex="1" parent="WIyWlLk6GJQsqaUBKTNV-1">
          <mxGeometry x="491" y="430" width="120" height="60" as="geometry" />
        </mxCell>
        <mxCell id="mz3z-fcJ6gBDwEwf40fS-14" value="" style="edgeStyle=orthogonalEdgeStyle;rounded=0;orthogonalLoop=1;jettySize=auto;html=1;" edge="1" parent="WIyWlLk6GJQsqaUBKTNV-1" source="mz3z-fcJ6gBDwEwf40fS-10" target="mz3z-fcJ6gBDwEwf40fS-13">
          <mxGeometry relative="1" as="geometry" />
        </mxCell>
        <mxCell id="mz3z-fcJ6gBDwEwf40fS-10" value="Threat Detected" style="rounded=1;whiteSpace=wrap;html=1;fillColor=#FFFFFF;" vertex="1" parent="WIyWlLk6GJQsqaUBKTNV-1">
          <mxGeometry x="221" y="420" width="120" height="60" as="geometry" />
        </mxCell>
        <mxCell id="mz3z-fcJ6gBDwEwf40fS-11" value="" style="endArrow=classic;html=1;rounded=0;entryX=0.5;entryY=0;entryDx=0;entryDy=0;exitX=1;exitY=0.5;exitDx=0;exitDy=0;edgeStyle=orthogonalEdgeStyle;" edge="1" parent="WIyWlLk6GJQsqaUBKTNV-1" source="mz3z-fcJ6gBDwEwf40fS-7" target="mz3z-fcJ6gBDwEwf40fS-9">
          <mxGeometry width="50" height="50" relative="1" as="geometry">
            <mxPoint x="470" y="330" as="sourcePoint" />
            <mxPoint x="520" y="280" as="targetPoint" />
          </mxGeometry>
        </mxCell>
        <mxCell id="mz3z-fcJ6gBDwEwf40fS-12" value="" style="endArrow=classic;html=1;rounded=0;entryX=0.5;entryY=0;entryDx=0;entryDy=0;exitX=0;exitY=0.5;exitDx=0;exitDy=0;edgeStyle=orthogonalEdgeStyle;" edge="1" parent="WIyWlLk6GJQsqaUBKTNV-1" source="mz3z-fcJ6gBDwEwf40fS-7" target="mz3z-fcJ6gBDwEwf40fS-10">
          <mxGeometry width="50" height="50" relative="1" as="geometry">
            <mxPoint x="250" y="350" as="sourcePoint" />
            <mxPoint x="300" y="300" as="targetPoint" />
          </mxGeometry>
        </mxCell>
        <mxCell id="mz3z-fcJ6gBDwEwf40fS-13" value="Create Firewall rule" style="rounded=1;whiteSpace=wrap;html=1;fillColor=#FFFFFF;" vertex="1" parent="WIyWlLk6GJQsqaUBKTNV-1">
          <mxGeometry x="221" y="510" width="120" height="60" as="geometry" />
        </mxCell>
        <mxCell id="mz3z-fcJ6gBDwEwf40fS-15" value="Checking IP status" style="rounded=1;whiteSpace=wrap;html=1;fillColor=#FFFFFF;" vertex="1" parent="WIyWlLk6GJQsqaUBKTNV-1">
          <mxGeometry x="351.5" y="290" width="129" height="30" as="geometry" />
        </mxCell>
        <mxCell id="mz3z-fcJ6gBDwEwf40fS-16" value="" style="endArrow=classic;html=1;rounded=0;entryX=0.5;entryY=0;entryDx=0;entryDy=0;exitX=0.5;exitY=1;exitDx=0;exitDy=0;" edge="1" parent="WIyWlLk6GJQsqaUBKTNV-1" source="mz3z-fcJ6gBDwEwf40fS-15" target="mz3z-fcJ6gBDwEwf40fS-7">
          <mxGeometry width="50" height="50" relative="1" as="geometry">
            <mxPoint x="330" y="390" as="sourcePoint" />
            <mxPoint x="380" y="340" as="targetPoint" />
          </mxGeometry>
        </mxCell>
        <mxCell id="mz3z-fcJ6gBDwEwf40fS-18" value="" style="endArrow=classic;html=1;rounded=0;exitX=1;exitY=0.5;exitDx=0;exitDy=0;edgeStyle=orthogonalEdgeStyle;entryX=1;entryY=0.5;entryDx=0;entryDy=0;" edge="1" parent="WIyWlLk6GJQsqaUBKTNV-1" source="mz3z-fcJ6gBDwEwf40fS-9" target="mz3z-fcJ6gBDwEwf40fS-5">
          <mxGeometry width="50" height="50" relative="1" as="geometry">
            <mxPoint x="630" y="450" as="sourcePoint" />
            <mxPoint x="680" y="400" as="targetPoint" />
            <Array as="points">
              <mxPoint x="650" y="460" />
              <mxPoint x="650" y="240" />
            </Array>
          </mxGeometry>
        </mxCell>
        <mxCell id="mz3z-fcJ6gBDwEwf40fS-19" value="" style="endArrow=classic;html=1;rounded=0;exitX=0;exitY=0.5;exitDx=0;exitDy=0;edgeStyle=orthogonalEdgeStyle;entryX=0;entryY=0.5;entryDx=0;entryDy=0;" edge="1" parent="WIyWlLk6GJQsqaUBKTNV-1" source="mz3z-fcJ6gBDwEwf40fS-10" target="mz3z-fcJ6gBDwEwf40fS-5">
          <mxGeometry width="50" height="50" relative="1" as="geometry">
            <mxPoint x="182" y="430" as="sourcePoint" />
            <mxPoint x="62" y="210" as="targetPoint" />
            <Array as="points">
              <mxPoint x="170" y="450" />
              <mxPoint x="170" y="240" />
            </Array>
          </mxGeometry>
        </mxCell>
        <mxCell id="mz3z-fcJ6gBDwEwf40fS-22" value="" style="group" vertex="1" connectable="0" parent="WIyWlLk6GJQsqaUBKTNV-1">
          <mxGeometry x="400" y="600" width="50" height="60" as="geometry" />
        </mxCell>
        <mxCell id="mz3z-fcJ6gBDwEwf40fS-20" value="" style="triangle;whiteSpace=wrap;html=1;fillColor=#FFFFFF;rotation=-90;" vertex="1" parent="mz3z-fcJ6gBDwEwf40fS-22">
          <mxGeometry x="8.333333333333334" y="22.5" width="33.333333333333336" height="45" as="geometry" />
        </mxCell>
        <mxCell id="mz3z-fcJ6gBDwEwf40fS-21" value="" style="triangle;whiteSpace=wrap;html=1;fillColor=#FFFFFF;rotation=0;direction=south;" vertex="1" parent="mz3z-fcJ6gBDwEwf40fS-22">
          <mxGeometry width="50" height="30" as="geometry" />
        </mxCell>
      </root>
    </mxGraphModel>
  </diagram>
</mxfile>
